<?xml version="1.0"?>
<svg xmlns="http://www.w3.org/2000/svg" xmlns:xlink="http://www.w3.org/1999/xlink" xmlns:svgjs="http://svgjs.com/svgjs" version="1.1" width="512" height="512" x="0" y="0" viewBox="0 0 512 512" style="enable-background:new 0 0 512 512" xml:space="preserve"><g><g xmlns="http://www.w3.org/2000/svg"><path d="m489.5 425.5h-49v-41.731c0-4.142-3.357-7.5-7.5-7.5s-7.5 3.358-7.5 7.5v9.731h-15v-58.9c0-14.992-1.607-30.049-4.779-44.754l-4.928-22.806h42.907c-.821 5.973-3.31 11.646-7.206 16.313-3.532 4.229-6.278 9.001-8.167 14.196-1.876 5.185-2.827 10.605-2.827 16.112v38.263c0 4.142 3.357 7.5 7.5 7.5s7.5-3.358 7.5-7.5v-38.264c0-3.761.65-7.464 1.929-10.998 1.288-3.543 3.164-6.805 5.577-9.694 7.09-8.488 10.994-19.251 10.994-30.308v-89.66c0-8.714-2.996-16.736-8-23.11v-26.753c1.635-2.093 3.063-4.374 4.246-6.83 4.12-3.386 6.754-8.519 6.754-14.256v-34.795c0-14.202-11.555-25.756-25.757-25.756h-37.743c-14.061 0-25.5 11.439-25.5 25.5 0 8.677 4.36 16.351 11 20.959v9.226c-4.878.562-8.68 4.712-8.68 9.738v10.577c0 13.021 10.594 23.615 23.615 23.615h2.824c-2.427 1.509-4.702 3.3-6.774 5.372-7.084 7.085-10.985 16.501-10.985 26.513v49.039h-20.52v-53.423c0-4.142-3.357-7.5-7.5-7.5-.033 0-.064.004-.097.005h-55.089c-4.143 0-7.5 3.358-7.5 7.5s3.357 7.5 7.5 7.5h47.686v13.303h-84.999v-13.304h5.211c4.143 0 7.5-3.358 7.5-7.5s-3.357-7.5-7.5-7.5h-12.615c-.032 0-.064-.005-.097-.005-3.625 0-6.65 2.572-7.348 5.991-.1.489-.153.995-.153 1.514v110c0 4.142 3.358 7.5 7.5 7.5h100c4.143 0 7.5-3.358 7.5-7.5v-11.582h21.966l5.612 25.973c2.947 13.666 4.441 27.658 4.441 41.589v59.274c-13.029 2.155-23 13.495-23 27.126v4.5h-233v-4.5c0-13.631-9.97-24.971-23-27.126v-59.276c0-13.952 1.494-27.942 4.44-41.582l5.613-25.978h36.949c12.407 0 22.5-10.093 22.5-22.5s-10.093-22.5-22.5-22.5h-35.5v-9.808c0-4.142-3.358-7.5-7.5-7.5s-7.5 3.358-7.5 7.5v9.808h-15v-47.038c0-10.791-7.637-19.828-17.788-22 3.086-1.594 6.582-2.5 10.288-2.5 6.006 0 11.655 2.342 15.907 6.593 4.251 4.252 6.593 9.901 6.593 15.907v7.077c0 4.142 3.358 7.5 7.5 7.5s7.5-3.358 7.5-7.5v-7.077c0-10.012-3.902-19.428-10.987-26.513-2.072-2.072-4.347-3.862-6.774-5.372h2.824c13.022 0 23.616-10.594 23.616-23.615v-10.577c0-5.026-3.802-9.175-8.68-9.737v-10.35c5.789-4.678 9.5-11.83 9.5-19.835 0-14.061-11.439-25.5-25.5-25.5h-37.743c-14.202-.001-25.756 11.553-25.756 25.755v34.795c0 6.742 3.646 12.634 9.059 15.852 1.003 1.846 2.165 3.576 3.441 5.202v26.784c-5.004 6.374-8 14.396-8 23.11v89.659c0 11.058 3.904 21.821 10.994 30.309 4.84 5.793 7.506 13.142 7.506 20.691v111.842h-49c-12.407 0-22.5 10.093-22.5 22.5s10.093 22.5 22.5 22.5h467c12.406 0 22.5-10.093 22.5-22.5s-10.094-22.5-22.5-22.5zm-141-173.461c-4.136 0-7.5-3.364-7.5-7.5s3.364-7.5 7.5-7.5h7.451c.01 0 .019.001.029.001s.019-.001.029-.001h35.461c.01 0 .019.001.029.001s.019-.001.029-.001h29.972c4.143 0 7.5-3.358 7.5-7.5v-20.544h15v35.544c0 4.136-3.364 7.5-7.5 7.5zm50.5-154.924v-4.615h17.295c1.491 0 2.705 1.213 2.705 2.705v.744c0 .26.012.518.02.776l-6.877 2.72c-1.851-1.454-4.177-2.33-6.707-2.33zm17.32 16.808 7.745-3.063c2.605 3.397 6.075 6.096 10.08 7.764-3.645 2.475-8.017 3.876-12.646 3.876-1.768 0-3.498-.207-5.18-.606v-7.971zm19.68 20.659v3.836c-1.893-.797-3.869-1.434-5.904-1.913 2.033-.474 4.002-1.128 5.904-1.923zm8 40.418v18.995h-15v-18.995c0-4.136 3.364-7.5 7.5-7.5s7.5 3.364 7.5 7.5zm-45.5-118.5h37.743c5.932 0 10.757 4.825 10.757 10.756v34.795c0 1.902-1.547 3.449-3.448 3.449-5.267 0-9.552-4.285-9.552-9.551v-.744c0-9.763-7.942-17.705-17.705-17.705h-17.795c-5.79 0-10.5-4.71-10.5-10.5s4.71-10.5 10.5-10.5zm2.82 69.615h-2.385c-4.75 0-8.615-3.865-8.615-8.615v-5.385h1.402c.043.001.086.006.13.006.024 0 .049-.006.074-.006h9.395v14zm-2.32 46.885c0-6.005 2.342-11.655 6.594-15.907 4.251-4.252 9.9-6.593 15.906-6.593 3.706 0 7.202.906 10.288 2.5-10.151 2.172-17.788 11.209-17.788 22v47.039h-15zm-135.521 98.12v-66.697h85.001v17.616c-12.397.011-22.48 10.099-22.48 22.5s10.083 22.489 22.48 22.5v4.082h-85.001zm124.021 149.88c0-6.893 5.607-12.5 12.5-12.5h25.5v17h-38zm-301-71.705h15v44.205h-15zm.278-238.893 8.902 3.521v7.971c-1.681.399-3.411.606-5.18.606-4.835 0-9.429-1.567-13.196-4.298 3.779-1.766 7.035-4.464 9.474-7.8zm-4.828 26.093c-2.052.48-4.042 1.121-5.95 1.924v-3.87c1.918.807 3.904 1.465 5.95 1.946zm38.521 100.544c.01 0 .019.001.029.001s.019-.001.029-.001h42.971c4.136 0 7.5 3.364 7.5 7.5s-3.364 7.5-7.5 7.5h-88c-4.136 0-7.5-3.364-7.5-7.5v-35.544h15v20.544c0 4.142 3.358 7.5 7.5 7.5zm-37.471-62.039v18.995h-15v-18.995c0-4.136 3.364-7.5 7.5-7.5s7.5 3.364 7.5 7.5zm38.68-57.5c0 4.75-3.865 8.615-8.616 8.615h-2.384v-14h9.396c.024 0 .05.006.074.006.044 0 .086-.005.13-.006h1.401v5.385zm-8.68-20.385h-6.436c-2.531 0-4.856.875-6.707 2.33l-8.362-3.307c0-.063.005-.126.005-.189v-.744c0-1.492 1.213-2.705 2.705-2.705h17.795c.335 0 .668-.012 1-.025zm-49.5-29.859c0-5.931 4.825-10.756 10.756-10.756h37.744c5.79 0 10.5 4.71 10.5 10.5s-4.71 10.5-10.5 10.5h-17.795c-9.763 0-17.705 7.942-17.705 17.705v.744c0 5.267-4.285 9.551-9.551 9.551-1.902 0-3.449-1.547-3.449-3.449zm4.8 199.784h42.906l-4.928 22.809c-3.149 14.58-4.757 29.531-4.778 44.446h-15v-20.636c0-11.058-3.904-21.822-10.994-30.309-3.897-4.665-6.384-10.336-7.206-16.31zm18.2 141.46h25.5c6.893 0 12.5 5.607 12.5 12.5v4.5h-38zm403 47h-467c-4.136 0-7.5-3.364-7.5-7.5s3.364-7.5 7.5-7.5h467c4.136 0 7.5 3.364 7.5 7.5s-3.364 7.5-7.5 7.5z" fill="#ffffff" data-original="#000000" style=""/></g></g></svg>
