<?xml version="1.0"?>
<svg xmlns="http://www.w3.org/2000/svg" xmlns:xlink="http://www.w3.org/1999/xlink" xmlns:svgjs="http://svgjs.com/svgjs" version="1.1" width="512" height="512" x="0" y="0" viewBox="0 0 511 511.99903" style="enable-background:new 0 0 512 512" xml:space="preserve" class=""><g><path xmlns="http://www.w3.org/2000/svg" d="m280.394531 169.171875c4.144531 0 7.5-3.359375 7.5-7.5v-13.539063c0-4.140624-3.355469-7.5-7.5-7.5-4.140625 0-7.5 3.359376-7.5 7.5v13.539063c0 4.140625 3.359375 7.5 7.5 7.5zm0 0" fill="#ffffff" data-original="#000000" style="" class=""/><path xmlns="http://www.w3.org/2000/svg" d="m289.613281 174.066406h-18.4375c-4.140625 0-7.5 3.359375-7.5 7.503906 0 4.140626 3.359375 7.5 7.5 7.5h18.4375c4.144531 0 7.5-3.359374 7.5-7.5 0-4.144531-3.355469-7.503906-7.5-7.503906zm0 0" fill="#ffffff" data-original="#000000" style="" class=""/><path xmlns="http://www.w3.org/2000/svg" d="m141.148438 169.171875c4.140624 0 7.5-3.359375 7.5-7.5v-13.539063c0-4.140624-3.359376-7.5-7.5-7.5-4.140626 0-7.5 3.359376-7.5 7.5v13.539063c0 4.140625 3.359374 7.5 7.5 7.5zm0 0" fill="#ffffff" data-original="#000000" style="" class=""/><path xmlns="http://www.w3.org/2000/svg" d="m150.367188 174.066406h-18.4375c-4.140626 0-7.5 3.359375-7.5 7.503906 0 4.140626 3.359374 7.5 7.5 7.5h18.4375c4.144531 0 7.5-3.359374 7.5-7.5 0-4.144531-3.355469-7.503906-7.5-7.503906zm0 0" fill="#ffffff" data-original="#000000" style="" class=""/><path xmlns="http://www.w3.org/2000/svg" d="m228.160156 169.648438c-3.117187-2.726563-7.855468-2.410157-10.582031.710937-1.636719 1.871094-4.117187 2.945313-6.804687 2.945313-2.691407 0-5.171876-1.074219-6.808594-2.945313-2.722656-3.121094-7.460938-3.4375-10.582032-.710937-3.117187 2.726562-3.4375 7.460937-.710937 10.582031 4.484375 5.132812 11.082031 8.074219 18.101563 8.074219 7.015624 0 13.613281-2.941407 18.097656-8.074219 2.726562-3.117188 2.410156-7.855469-.710938-10.582031zm0 0" fill="#ffffff" data-original="#000000" style="" class=""/><path xmlns="http://www.w3.org/2000/svg" d="m239.3125 338.519531h-57.082031c-8.777344 0-15.917969 7.140625-15.917969 15.917969v14.804688c0 24.515624 19.945312 44.457031 44.457031 44.457031 24.242188 0 44.460938-20.242188 44.460938-44.457031v-14.804688c0-8.777344-7.140625-15.917969-15.917969-15.917969zm-57.996094 15.917969c0-.511719.402344-.914062.914063-.914062h57.082031c.515625 0 .917969.402343.917969.914062v7.304688h-58.914063zm50.292969 35.632812c-5.574219 5.5625-12.972656 8.625-20.835937 8.625-13.652344 0-25.164063-9.332031-28.492188-21.953124h56.988281c-1.304687 4.996093-3.917969 9.578124-7.660156 13.328124zm0 0" fill="#ffffff" data-original="#000000" style="" class=""/><path xmlns="http://www.w3.org/2000/svg" d="m44.902344 77.019531c-.429688.441407-.785156.816407-1.015625 1.027344-28.917969 25.707031-45.082031 62.4375-43.246094 98.257813.714844 13.921874 4.523437 27.195312 11.007813 38.390624 2.078124 3.582032 6.667968 4.804688 10.25 2.726563 3.585937-2.074219 4.804687-6.664063 2.730468-10.25-5.300781-9.140625-8.414062-20.082031-9.007812-31.636719-1.605469-31.316406 12.6875-63.566406 38.234375-86.273437.007812-.011719.019531-.019531.027343-.027344 3.515626 5.742187 8.601563 10.453125 14.632813 13.488281-4.089844 13.699219-6.089844 28.015625-5.941406 42.3125.285156 27.558594 8.375 55.402344 23.710937 78.703125-1.761718.789063-4.050781 1.753907-7.007812 2.921875l-.417969.167969c-12.84375 5.109375-25.285156 4.707031-35.992187-1.164063-3.632813-1.992187-8.191407-.664062-10.183594 2.96875-1.992188 3.632813-.660156 8.191407 2.96875 10.183594 15.183594 8.328125 32.875 8.265625 48.753906 1.949219l.386719-.152344c4.6875-1.855469 8.097656-3.347656 10.628906-4.585937 3.484375 4.242187 7.203125 8.292968 11.144531 12.125-25.398437 9.457031-50.074218 21.644531-71.761718 38.027344-17.386719 13.136718-20.847657 37.976562-7.710938 55.378906 12.976562 17.183594 38.203125 20.683594 55.371094 7.707031 3.039062-2.300781 6.324218-4.566406 9.820312-6.777344-4.207031 12.941407-7.859375 26.957031-10.386718 41.738281-2.273438 13.304688 4.796874 26.292969 17.191406 31.589844 3.0625 1.308594 6.644531 2.753906 10.703125 4.265625 0 0-9.019531 40.898438-9.019531 40.914063-4.933594 22.363281 9.648437 45.136718 31.964843 50.054687 22.265625 4.902344 45.144531-9.699219 50.054688-31.976562l9.164062-41.574219c6.082031.398438 12.359375.617188 18.8125.617188s12.730469-.21875 18.8125-.617188c0 0 9.164063 41.570312 9.164063 41.574219 4.878906 22.15625 27.910156 36.878906 50.042968 31.976562 22.339844-4.945312 36.90625-27.6875 31.976563-50.054687l-9.019531-40.914063c4.058594-1.511719 7.640625-2.957031 10.703125-4.269531 12.390625-5.292969 19.460937-18.28125 17.191406-31.585938-2.535156-14.835937-6.25-28.914062-10.449219-41.777343 3.519532 2.226562 6.828125 4.5 9.882813 6.816406 17.214843 13.019531 42.394531 9.449219 55.371093-7.714844 13.136719-17.394531 9.675782-42.234375-7.710937-55.375-10.242187-7.734375-21.894531-15.023437-34.636719-21.660156-11.472656-5.96875-23.925781-11.453125-37.128906-16.367187 3.941406-3.828126 7.664062-7.878907 11.148438-12.121094 2.53125 1.238281 11.015624 4.734375 11.015624 4.734375 17.082032 6.796875 36.371094 6.15625 52.046876-3.898438 18.523437-11.886719 30.382812-34.527343 31.71875-60.5625.941406-18.320312-2.640626-36.535156-10.644532-54.144531-1.710937-3.773438-6.15625-5.441406-9.929687-3.726562-3.769531 1.714843-5.4375 6.160156-3.726563 9.933593 7 15.398438 10.136719 31.269531 9.320313 47.167969-1.074219 20.898438-10.589844 39.5625-24.839844 48.707031-11.242187 7.210938-24.523437 8.105469-38.398437 2.585938-2.492188-.988281-4.980469-1.996094-7.425782-3.089844 7.796875-11.847656 13.75-24.710937 17.726563-38.15625 5.507812-18.609375 7.253906-38.441406 5.136719-57.738281-.933594-8.5-2.648438-16.9375-5.09375-25.121094 6.03125-3.035156 11.117187-7.742188 14.632812-13.488281.007812.007812.019531.019531.03125.027343 5.285156 4.699219 10.203125 9.945313 14.617188 15.59375 2.550781 3.261719 7.265624 3.84375 10.53125 1.289063 3.261718-2.550781 3.839843-7.265625 1.289062-10.527344-5.308594-6.792969-11.484375-12.476562-17.492188-18.597656-1.652343-1.703125-3.167968-3.203125-4.660156-4.410156.027344-.558594.039063-1.117188.039063-1.679688 0-19.808593-16.113281-35.921875-35.921875-35.921875-7.6875 0-15.085938 2.46875-21.183594 6.929688-26.882812-26.03125-63.796875-41.933594-104.132812-41.933594-40.339844 0-77.253907 15.902344-104.136719 41.933594-6.101563-4.457032-13.496094-6.929688-21.1875-6.929688-19.804688 0-35.921875 16.117188-35.921875 35.925782 0 .5625.015625 1.121093.042968 1.675781-1.496093 1.207031-3.011718 2.710937-4.667968 4.414062zm74.605468 182.414063c2.84375 2.179687 5.777344 4.269531 8.785157 6.25-5.410157 8.488281-14.957031 24.617187-24.277344 45.980468-.027344-.117187-.0625-.230468-.089844-.347656-1.953125-8.03125-5.074219-15.75-9.078125-22.972656-2.8125-5.082031-6.085937-9.910156-9.6875-14.464844-.082031-.105468-.164062-.214844-.246094-.316406 10.785157-5.160156 22.375-9.894531 34.59375-14.128906zm-46.089843 77.863281c-10.683594 8.082031-26.289063 5.875-34.351563-4.785156-8.152344-10.796875-6.007812-26.210938 4.785156-34.367188 8.195313-6.191406 17.390626-12.089843 27.394532-17.582031.03125.035156.0625.070312.09375.105469 10.027344 11.78125 17.375 26.300781 19.425781 41.824219.136719 1.042968.257813 2.097656.347656 3.1875-6.457031 3.710937-12.394531 7.609374-17.695312 11.617187zm94.726562 138.550781c-3.136719 14.253906-17.925781 23.707032-32.167969 20.554688-17.078124-3.78125-23.09375-20.652344-19.683593-36.125l52.800781 11.265625s-.949219 4.300781-.949219 4.304687zm8.777344-39.699218c-1.761719 6.832031-3.078125 13.839843-4.601563 20.746093l-52.796874-11.269531 4.554687-20.65625c15.800781 4.929688 32.144531 8.484375 48.796875 10.652344 1.34375.175781 2.683594.34375 4.046875.527344zm125.585937 48.421874c-3.882812 6.078126-9.898437 10.28125-16.949218 11.832032-14.308594 3.152344-29.007813-6.242188-32.160156-20.554688l-.949219-4.304687 52.800781-11.265625c1.886719 8.558594 2.175781 16.59375-2.742188 24.292968zm-5.042968-59.601562 4.554687 20.65625-52.796875 11.269531-4.578125-20.753906c1.335938-.15625 2.664063-.339844 3.996094-.515625 16.664063-2.167969 33.015625-5.726562 48.824219-10.65625zm19.09375-22.949219c-33.222656 14.195313-69.703125 21.097657-105.785156 21.097657-29.953126 0-59.96875-4.882813-88.351563-14.464844-.015625-.007813-.03125-.011719-.046875-.015625-6.9375-2.347657-12.78125-4.648438-17.386719-6.617188-5.984375-2.554687-9.398437-8.832031-8.300781-15.265625 9.214844-53.925781 34.964844-98.308594 44.570312-113.445312 5.839844 3.046875 11.878907 5.683594 18.0625 7.929687 1.890626.6875 6.582032 2.230469 7.015626 2.363281.441406 24.136719 20.199218 43.636719 44.4375 43.636719 24.238281 0 43.996093-19.5 44.4375-43.636719.433593-.132812 5.121093-1.683593 7.019531-2.367187 6.179687-2.242187 12.21875-4.878906 18.058593-7.925781 9.609376 15.136718 35.355469 59.519531 44.566407 113.445312 1.097656 6.433594-2.3125 12.710938-8.296875 15.265625zm-76.703125-114.550781c-2.253907 14.023438-14.4375 24.769531-29.082031 24.769531-14.648438 0-26.832032-10.746093-29.085938-24.769531 9.566406 1.875 19.339844 2.8125 29.085938 2.8125 9.738281 0 19.523437-.9375 29.082031-2.8125zm142.625 45.039062c-8.03125 10.640626-23.726563 12.824219-34.355469 4.792969-5.300781-4.011719-11.238281-7.910156-17.695312-11.632812 1.40625-16.6875 9.078124-32.285157 19.765624-44.988281.035157-.039063.066407-.078126.101563-.117188 10.003906 5.492188 19.199219 11.390625 27.394531 17.582031 10.792969 8.15625 12.9375 23.570313 4.789063 34.363281zm-46.074219-58.660156c-2.042969 2.582032-3.976562 5.253906-5.785156 8.007813-5.917969 9.027343-10.460938 18.984375-13.011719 29.488281-.03125.132812-.070313.265625-.101563.402344-4.773437-10.925782-10.1875-21.542969-15.902343-32-.726563-1.335938-8.4375-14.011719-8.351563-14.066406 3.003906-1.980469 5.9375-4.066407 8.78125-6.25 12.21875 4.238281 23.808594 8.972656 34.59375 14.132812-.074218.09375-.148437.1875-.222656.285156zm-79.246094-6.730468c-29.671875 10.789062-63.109375 10.800781-92.78125-.003907-35.230468-12.859375-63.441406-39.917969-77.3125-74.027343-7.359375-18.097657-10.441406-37.925782-9.011718-57.40625.109374-.011719.226562-.027344.339843-.039063 46.613281-5.878906 95.074219-22.59375 130.09375-54.921875.742188-.691406 1.476563-1.394531 2.207031-2.101562.027344-.027344.050782-.050782.078126-.074219.027343.023437.050781.046875.078124.074219.730469.707031 1.464844 1.410156 2.207032 2.101562 34.289062 32.046875 82.128906 48.402344 127.890625 54.636719.847656.113281 1.691406.222656 2.539062.324219 1.429688 19.433593-1.523437 39.28125-8.96875 57.308593-13.859375 34.160157-42.09375 61.257813-77.359375 74.128907zm99.855469-196.191407c0 7.363281-3.816406 13.980469-9.78125 17.722657-5.585937-12.96875-13.027344-24.9375-21.976563-35.609376 3.234376-1.964843 6.972657-3.035156 10.835938-3.035156 11.535156 0 20.921875 9.386719 20.921875 20.921875zm-146.242187-55.925781c38.433593 0 73.40625 16.019531 97.847656 41.902344 16.523437 17.5 28.113281 39.691406 32.78125 63.316406-.128906-.019531-.253906-.035156-.386719-.054688-.117187-.019531-.234375-.035156-.351563-.054687-23.023437-3.390625-45.808593-9.558594-67.210937-18.75-21.222656-9.089844-41.449219-21.550781-57.15625-38.65625-2.925781-3.1875-8.132813-3.179687-11.050781 0-15.871094 17.28125-36.304688 29.765625-57.757813 38.910156-20.816406 8.875-42.894531 14.890625-65.257812 18.292969-.0625.011719-1.945313.292969-2.089844.3125 4.632813-23.449219 16.015625-45.273438 32.300781-62.746094.171875-.183594.328125-.371094.476563-.570312 24.445312-25.882813 59.417969-41.902344 97.855469-41.902344zm-125.324219 35.003906c3.863281 0 7.601562 1.070313 10.835937 3.035156-8.953125 10.671876-16.386718 22.644532-21.96875 35.613282-5.96875-3.742188-9.789062-10.363282-9.789062-17.726563 0-11.535156 9.386718-20.921875 20.921875-20.921875zm0 0" fill="#ffffff" data-original="#000000" style="" class=""/></g></svg>
